<svg width="85" height="32" viewBox="0 0 85 32" fill="none" xmlns="http://www.w3.org/2000/svg">
<g clip-path="url(#clip0_19620_96030)">
<path d="M62.3748 19.3077C62.4049 17.555 62.1942 15.7951 62.5429 14.0523C63.0999 11.2634 64.6127 9.18829 67.2621 7.95506C68.4363 7.4086 69.6731 7.12307 70.9602 6.91384C72.2322 6.70707 73.5017 6.67014 74.7561 6.78091C77.5535 7.02707 80.2104 7.67691 82.215 9.83568C83.4419 11.1551 84.1067 12.7083 84.3702 14.4511C84.7992 17.2966 84.6361 20.1643 84.5232 23.0098C84.4178 25.6904 83.4218 28.0904 81.0911 29.7593C79.9094 30.6061 78.5872 31.1107 77.1546 31.4283C75.5464 31.7852 73.9282 32.019 72.2974 31.8492C69.7534 31.5833 67.2671 31.1009 65.2475 29.3532C63.4135 27.7655 62.5555 25.7347 62.3924 23.4135C62.297 22.0523 62.3748 20.6763 62.3748 19.3077ZM77.4733 19.3003C77.4657 19.3003 77.4582 19.3003 77.4507 19.3003C77.4507 18.0941 77.4933 16.888 77.4381 15.6843C77.3905 14.6381 76.8485 13.8086 75.8826 13.3581C74.4877 12.7058 73.0024 12.6861 71.5448 13.112C70.3079 13.4738 69.4975 14.3181 69.4248 15.6129C69.2818 18.1212 69.2215 20.6369 69.4624 23.1427C69.5703 24.2775 70.3179 25.0037 71.4319 25.4049C72.4128 25.7593 73.4064 25.6904 74.3974 25.619C76.2063 25.491 77.4983 24.2701 77.4783 22.4904C77.4632 21.4246 77.4733 20.3612 77.4733 19.3003Z" fill="black"/>
<path d="M0.360136 20.1033C0.360136 17.1593 0.385225 14.2153 0.3501 11.2713C0.325012 9.12726 1.26333 8.79002 2.72099 8.21403C4.16861 7.64295 5.68648 7.2811 7.21439 7.05218C9.27668 6.74203 11.3716 6.5771 13.4515 6.79864C15.2804 6.9931 17.0793 7.42387 18.5821 8.54387C20.2932 9.81895 21.234 11.5642 21.6003 13.6269C21.7935 14.7199 21.8411 15.8177 21.8386 16.9229C21.8286 21.0928 21.8336 25.2651 21.8336 29.4349C21.8336 30.0823 21.7608 30.6879 21.0533 31.0202C20.8275 31.126 20.6143 31.1334 20.391 31.1359C19.0111 31.1433 17.6312 31.1285 16.2539 31.1433C15.5213 31.1506 14.8539 30.71 14.8414 29.942C14.8364 29.6171 14.7887 29.2897 14.7887 28.9648C14.7837 24.918 14.7862 20.8688 14.7837 16.822C14.7837 16.1894 14.7761 15.5519 14.5679 14.9439C14.1288 13.6713 13.0651 13.206 11.8357 13.0608C10.5437 12.9082 9.25159 13.0239 7.97708 13.2996C7.52298 13.398 7.46778 13.6663 7.46778 14.0602C7.47782 19.0473 7.47531 24.0368 7.47531 29.0263C7.47531 29.2725 7.48283 29.5186 7.46527 29.7623C7.40255 30.6657 6.92336 31.1309 6.01012 31.1408C4.67289 31.1556 3.33315 31.1186 1.99843 31.1556C0.99739 31.1851 0.367663 30.55 0.367663 29.5556C0.360136 26.3999 0.360136 23.2516 0.360136 20.1033Z" fill="black"/>
<path d="M38.1719 19.1281C38.2096 17.5306 38.0615 15.7706 38.3977 14.0254C38.9823 10.9829 40.6482 8.81922 43.6513 7.67461C45.9243 6.80815 48.2877 6.56692 50.6686 6.79584C53.3581 7.05184 55.8369 7.89861 57.7211 9.96137C58.5892 10.9115 59.244 11.9823 59.5701 13.2032C59.8411 14.2297 59.53 14.6974 58.2781 15.1724C57.1792 15.5909 56.0301 15.874 54.9036 16.2211C53.9252 16.5214 53.4133 16.3195 52.9818 15.4112C52.618 14.6432 52.2317 13.922 51.5116 13.3731C50.3651 12.4968 47.6605 12.5091 46.5666 13.2377C45.8742 13.7004 45.4502 14.3084 45.3222 15.1183C45.2394 15.6451 45.2018 16.1718 45.2043 16.706C45.2118 18.6063 45.1767 20.5091 45.2194 22.4094C45.2545 23.9454 45.4753 25.1958 47.6479 25.7349C49.1508 26.109 50.6536 25.9737 51.8955 24.8783C52.2618 24.5534 52.5252 24.1497 52.7184 23.709C53.5087 21.9121 54.0255 22.1755 55.4079 22.493C56.3337 22.7047 57.2068 23.1281 58.13 23.3644C60.0142 23.8494 59.9615 24.8684 59.3243 26.21C58.2078 28.5583 56.3512 30.1977 53.8624 31.074C53.0094 31.3743 52.0912 31.5318 51.1779 31.682C50.0565 31.8666 48.94 31.9601 47.8311 31.8543C45.7864 31.6573 43.7717 31.3324 41.9754 30.205C40.2192 29.1023 39.1654 27.5441 38.6185 25.6241C38.0264 23.5417 38.192 21.405 38.1719 19.1281Z" fill="black"/>
<path d="M34.4183 15.7316C34.4183 20.2707 34.4208 24.8097 34.4158 29.3464C34.4158 30.07 34.2452 30.7224 33.4599 31.0497C33.2341 31.1433 33.0133 31.1334 32.7925 31.1334C31.5381 31.1433 30.2837 31.1433 29.0317 31.1384C27.7948 31.131 27.3131 30.6657 27.3106 29.4448C27.3056 22.8627 27.3081 16.278 27.3031 9.69589C27.3031 9.44481 27.4461 9.08297 27.2002 8.96727C26.9268 8.83927 26.7286 9.18389 26.5053 9.33897C26.0236 9.67128 25.5419 10.0011 25.0526 10.3211C24.3301 10.7962 23.7079 10.651 23.309 9.90266C22.6893 8.73589 21.8764 7.71681 20.8929 6.82327C20.1929 6.18574 20.2255 5.53835 21.0209 5.02389C23.2161 3.60604 25.4089 2.18574 27.6443 0.826967C28.3092 0.423275 29.0794 0.177121 29.9174 0.218967C30.7729 0.260813 31.6309 0.246044 32.4865 0.22389C33.9015 0.189429 34.4083 0.858967 34.4133 2.11435C34.4308 6.65343 34.4183 11.1925 34.4183 15.7316Z" fill="black"/>
</g>
<defs>
<clipPath id="clip0_19620_96030">
<rect width="84.8" height="32" fill="white" transform="translate(0.0996094)"/>
</clipPath>
</defs>
</svg>
